Coordinates
version=1
nRows=37
nColumns=38
inDegrees=no

Units are S.I. units (second, meters, Newtons, ...)
If the header above contains a line with 'inDegrees', this indicates whether rotational values are in degrees (yes) or radians (no).

endheader
time	pelvis_tilt	pelvis_list	pelvis_rotation	pelvis_tx	pelvis_ty	pelvis_tz	hip_flexion_r	hip_adduction_r	hip_rotation_r	knee_angle_r	ankle_angle_r	subtalar_angle_r	mtp_angle_r	hip_flexion_l	hip_adduction_l	hip_rotation_l	knee_angle_l	ankle_angle_l	subtalar_angle_l	mtp_angle_l	lumbar_extension	lumbar_bending	lumbar_rotation	arm_flex_r	arm_add_r	arm_rot_r	elbow_flex_r	pro_sup_r	wrist_flex_r	wrist_dev_r	arm_flex_l	arm_add_l	arm_rot_l	elbow_flex_l	pro_sup_l	wrist_flex_l	wrist_dev_l
0	1.02247	1.43764	-2.6331	0.78895	2.10119	1.03178	-0.12328	-0.285866	-0.00378142	0.837722	-0.698132	0	0	0.163794	0.153089	-0.312255	0.28878	-0.121675	0	0	-0.591962	-0.122132	-0.00348948	-0.137398	-0.437686	0.157347	0.907393	0.997312	0	0	-0.105409	-0.422897	0.0832617	0.837367	1.25208	0	0
0.01	0.808975	1.48662	-2.42917	0.789498	2.08799	1.02591	-0.0833643	-0.220164	0.022616	0.887873	-0.616874	0	0	0.190978	0.0638741	-0.429529	0.378153	-0.0706512	0	0	-0.567785	-0.0666506	0.0285245	-0.171538	-0.470924	0.142589	0.954808	0.996809	0	0	-0.127465	-0.404943	0.0599913	0.867965	1.27216	0	0
0.02	0.733517	1.44272	-2.29409	0.796579	2.08241	1.03602	-0.1168	-0.250575	-0.0492392	0.90325	-0.568665	0	0	0.130024	0.11919	-0.299467	0.328344	-0.107071	0	0	-0.633766	-0.053517	-0.0437639	-0.143443	-0.471997	0.137487	0.967782	1.00197	0	0	-0.101891	-0.417167	0.0580875	0.890649	1.27122	0	0
0.03	0.661879	1.4894	-2.26847	0.790518	2.06467	1.03013	-0.0480327	-0.208329	0.0113393	0.94035	-0.471191	0	0	0.157158	0.053939	-0.421878	0.37466	-0.0577835	0	0	-0.57113	-0.046432	0.00986158	-0.160583	-0.482961	0.151014	0.955944	1.00119	0	0	-0.126204	-0.407013	0.0430218	0.892299	1.29498	0	0
0.04	0.583598	1.48799	-2.18445	0.790727	2.05268	1.03237	-0.0352632	-0.200169	0.00182041	0.990324	-0.370022	0	0	0.138931	0.0497632	-0.419703	0.376519	-0.050184	0	0	-0.572782	-0.0378697	0.0041383	-0.157189	-0.491642	0.159701	0.956151	0.99139	0	0	-0.120986	-0.411912	0.0471617	0.90005	1.29786	0	0
0.05	0.204638	1.4674	-1.74133	0.799595	2.04616	1.03715	-0.0639463	-0.180029	-0.0822333	0.980321	-0.359078	0	0	0.101182	0.0453889	-0.309257	0.376743	-0.0431368	0	0	-0.623859	0.0330583	-0.033928	-0.164588	-0.519228	0.135544	1.00507	0.996671	0	0	-0.0971823	-0.408657	0.0519314	0.924763	1.30392	0	0
0.06	0.143288	1.46212	-1.6765	0.799797	2.03476	1.03991	-0.0438947	-0.173099	-0.0879222	0.99884	-0.3344	0	0	0.0818582	0.0372986	-0.315325	0.380443	-0.0403049	0	0	-0.629298	0.0431947	-0.0335578	-0.164715	-0.525592	0.131743	1.00792	1.0011	0	0	-0.0853654	-0.4128	0.0603794	0.929956	1.30936	0	0
0.07	0.0846556	1.45508	-1.61471	0.800058	2.02348	1.04288	-0.0273139	-0.168529	-0.0993411	1.01023	-0.306914	0	0	0.0582508	0.0298052	-0.321113	0.376199	-0.0395507	0	0	-0.636369	0.0537569	-0.0315462	-0.166174	-0.53315	0.128164	1.01237	1.00436	0	0	-0.0717397	-0.41743	0.0714815	0.934816	1.31417	0	0
0.08	0.0430497	1.45103	-1.56701	0.800298	2.01231	1.04567	-0.0063962	-0.165449	-0.1106	1.00674	-0.290782	0	0	0.0387076	0.0239359	-0.320105	0.37064	-0.0401828	0	0	-0.639615	0.0643029	-0.0316986	-0.168029	-0.538369	0.124123	1.01525	1.00671	0	0	-0.056477	-0.423701	0.0854303	0.937596	1.31732	0	0
0.09	0.209157	1.47445	-1.78839	0.791514	1.9957	1.04649	0.0584574	-0.173189	-0.0539577	1.02198	-0.244127	0	0	0.0348656	0.0258764	-0.423158	0.352486	-0.0525451	0	0	-0.594248	0.0110512	0.00340142	-0.160309	-0.516718	0.137922	0.96603	1.02112	0	0	-0.0536368	-0.434872	0.0997736	0.916217	1.3255	0	0
0.1	-0.0308569	1.44366	-1.48668	0.799971	1.99024	1.05078	0.0289045	-0.156183	-0.139605	1.00549	-0.216467	0	0	0.000455724	0.0106969	-0.324085	0.357299	-0.0453643	0	0	-0.644332	0.082335	-0.0264178	-0.175237	-0.546079	0.110564	1.02416	1.01563	0	0	-0.0241463	-0.438767	0.119684	0.943854	1.31955	0	0
0.11	-0.0761058	1.43921	-1.44187	0.79941	1.97945	1.05325	0.0464161	-0.144214	-0.146753	0.996895	-0.167697	0	0	-0.0199325	0.00295808	-0.32389	0.348485	-0.0454857	0	0	-0.648453	0.0926898	-0.00924028	-0.194195	-0.55218	0.0888526	1.04044	1.00693	0	0	0.0071271	-0.449014	0.164233	0.939963	1.30548	0	0
0.12	-0.116775	1.43599	-1.40072	0.798853	1.96863	1.05569	0.0647191	-0.132458	-0.159564	0.982873	-0.141452	0	0	-0.038971	-0.00452838	-0.324275	0.339368	-0.0475691	0	0	-0.649914	0.10067	-0.00727183	-0.192751	-0.55768	0.0920078	1.04336	1.00057	0	0	0.0192522	-0.454987	0.172586	0.945988	1.30894	0	0
0.13	-0.145091	1.4342	-1.37072	0.798157	1.95777	1.05777	0.0767439	-0.126347	-0.169623	0.94259	-0.125894	0	0	-0.0563578	-0.01051	-0.324615	0.330814	-0.0488127	0	0	-0.648715	0.106852	-0.00970902	-0.188355	-0.562254	0.100522	1.04425	0.991514	0	0	0.0272374	-0.462021	0.176056	0.954354	1.31252	0	0
0.14	-0.173807	1.43285	-1.3389	0.797416	1.94713	1.05975	0.088776	-0.11973	-0.183372	0.903045	-0.102903	0	0	-0.0743638	-0.0156349	-0.317525	0.317979	-0.055663	0	0	-0.648924	0.115624	-0.00390454	-0.200604	-0.552634	0.0679512	1.05302	1.02574	0	0	0.0472002	-0.465608	0.189505	0.954647	1.32399	0	0
0.15	-0.285523	1.43251	-1.22768	0.797396	1.93826	1.06359	0.156285	-0.0992472	-0.194276	0.983196	-0.095458	0	0	-0.0840446	-0.0298381	-0.30813	0.306615	-0.0637344	0	0	-0.65296	0.132756	0.00224952	-0.185254	-0.55922	0.0757361	1.04775	1.02665	0	0	0.064394	-0.460646	0.184419	0.955094	1.33685	0	0
0.16	-0.230103	1.47339	-1.34252	0.786962	1.92165	1.06318	0.222666	-0.0976507	-0.136529	0.966536	-0.0687146	0	0	-0.078505	-0.0168642	-0.403359	0.283261	-0.0795022	0	0	-0.596101	0.0721833	0.0338421	-0.170252	-0.531558	0.10092	0.990032	1.03039	0	0	0.0589603	-0.469725	0.18499	0.936904	1.34841	0	0
0.17	-0.261033	1.47216	-1.30478	0.786317	1.91094	1.0649	0.231907	-0.095808	-0.161179	0.924996	-0.0569758	0	0	-0.0952011	-0.0211752	-0.40182	0.271893	-0.084806	0	0	-0.595377	0.079086	0.0291015	-0.167791	-0.529339	0.100569	0.989507	1.03306	0	0	0.0675138	-0.474717	0.183577	0.945724	1.35497	0	0
0.18	-0.322153	1.4188	-1.16438	0.795928	1.90701	1.06941	0.169738	-0.0950887	-0.278973	0.854729	-0.057928	0	0	-0.141422	-0.0484472	-0.299516	0.275767	-0.0779578	0	0	-0.66249	0.158938	-0.00886271	-0.186285	-0.55659	0.0675109	1.05973	1.01983	0	0	0.10202	-0.479444	0.196928	0.980414	1.34804	0	0
0.19	-0.321254	1.46627	-1.22894	0.78492	1.88992	1.068	0.240303	-0.0887114	-0.204768	0.821849	-0.0430161	0	0	-0.130873	-0.0307524	-0.394322	0.248924	-0.0949407	0	0	-0.599002	0.0954331	0.0272416	-0.173531	-0.526208	0.0881891	0.997799	1.0296	0	0	0.0955268	-0.483133	0.193521	0.959426	1.36685	0	0
0.2	-0.350871	1.46375	-1.19036	0.784197	1.87934	1.06925	0.241461	-0.0847599	-0.224927	0.761316	-0.041379	0	0	-0.146225	-0.0369174	-0.391895	0.242259	-0.0978004	0	0	-0.59983	0.104473	0.0218266	-0.171507	-0.524748	0.0878352	0.998715	1.03149	0	0	0.105552	-0.485926	0.191758	0.966577	1.37469	0	0
0.21	-0.392331	1.46258	-1.14347	0.783135	1.86848	1.07006	0.242005	-0.0776984	-0.238542	0.69361	-0.045156	0	0	-0.161623	-0.0429948	-0.393213	0.231744	-0.100587	0	0	-0.599093	0.111198	0.0140877	-0.159509	-0.532445	0.114239	0.995253	1.0026	0	0	0.105054	-0.487174	0.172944	0.980369	1.39036	0	0
0.22	-0.428344	1.46163	-1.10339	0.78181	1.85762	1.07055	0.240894	-0.0701133	-0.247345	0.621586	-0.050591	0	0	-0.176577	-0.0486544	-0.396978	0.222372	-0.102314	0	0	-0.597224	0.117335	0.0169992	-0.163866	-0.527728	0.102401	0.996154	1.01216	0	0	0.118171	-0.488505	0.176788	0.984495	1.39644	0	0
0.23	-0.464655	1.46132	-1.06383	0.780281	1.84666	1.07064	0.238711	-0.0620235	-0.252467	0.545313	-0.0627063	0	0	-0.191882	-0.0532845	-0.399935	0.20993	-0.103939	0	0	-0.594624	0.122381	0.0197464	-0.167212	-0.523757	0.0934326	0.996471	1.01756	0	0	0.129396	-0.490174	0.179238	0.98998	1.40145	0	0
0.24	-0.489714	1.46126	-1.03409	0.778793	1.83569	1.07046	0.234026	-0.0555974	-0.257396	0.465557	-0.08152	0	0	-0.204216	-0.0587997	-0.404715	0.205834	-0.103878	0	0	-0.592587	0.126758	0.0200277	-0.169192	-0.520481	0.0876523	0.996645	1.0219	0	0	0.13937	-0.492871	0.181085	0.996953	1.40564	0	0
0.25	-0.506749	1.46244	-1.01078	0.777402	1.82482	1.06991	0.229286	-0.051417	-0.260271	0.386102	-0.106662	0	0	-0.216208	-0.0621902	-0.404437	0.198858	-0.1042	0	0	-0.589828	0.130372	0.0180426	-0.170598	-0.517253	0.0830011	0.996668	1.0248	0	0	0.148879	-0.49619	0.183204	1.00454	1.40868	0	0
0.26	-0.514245	1.46555	-0.996657	0.775993	1.81393	1.06893	0.225584	-0.0501764	-0.258625	0.308162	-0.138195	0	0	-0.22666	-0.0636909	-0.402804	0.192257	-0.104538	0	0	-0.585825	0.132184	0.0143094	-0.171568	-0.513649	0.079038	0.996273	1.02649	0	0	0.157709	-0.500102	0.185634	1.0122	1.41086	0	0
0.27	-0.513137	1.47069	-0.991523	0.774493	1.80294	1.06749	0.223067	-0.0519998	-0.252198	0.232783	-0.174799	0	0	-0.235444	-0.0633878	-0.401788	0.186849	-0.10398	0	0	-0.580445	0.131877	0.00923995	-0.172107	-0.50971	0.0760416	0.995238	1.02782	0	0	0.164845	-0.504885	0.187789	1.02086	1.41213	0	0
0.28	-0.503121	1.47727	-0.99546	0.772866	1.79178	1.0657	0.220966	-0.0569681	-0.242155	0.160705	-0.218756	0	0	-0.24313	-0.0618757	-0.401527	0.182889	-0.101911	0	0	-0.573582	0.129673	0.00366263	-0.172665	-0.505133	0.0737079	0.992748	1.02925	0	0	0.170992	-0.510403	0.191028	1.02985	1.41228	0	0
0.29	-0.47832	1.48527	-1.01461	0.77112	1.78041	1.06355	0.216877	-0.0643852	-0.221698	0.0874853	-0.27033	0	0	-0.250043	-0.0587797	-0.402335	0.180303	-0.0983198	0	0	-0.564933	0.124301	-0.00590244	-0.165911	-0.508445	0.0956478	0.98603	1.00314	0	0	0.171665	-0.518095	0.190056	1.04201	1.4132	0	0
0.3	-0.422723	1.49227	-1.06397	0.769421	1.76884	1.06131	0.213409	-0.073901	-0.207474	0.0261121	-0.296353	0	0	-0.258836	-0.0547571	-0.403653	0.178572	-0.0968128	0	0	-0.558995	0.119302	-0.00988738	-0.171578	-0.501305	0.0851696	0.985299	1.01346	0	0	0.180937	-0.52433	0.200953	1.04841	1.41378	0	0
0.31	-0.346725	1.49718	-1.13357	0.767747	1.75705	1.05909	0.213579	-0.0836179	-0.212283	0	-0.306423	0	0	-0.269594	-0.0513712	-0.406746	0.177637	-0.0959448	0	0	-0.554772	0.11474	-0.0144684	-0.176097	-0.497523	0.0811076	0.984942	1.01609	0	0	0.188283	-0.529291	0.208855	1.05482	1.41503	0	0
0.32	-0.251134	1.49811	-1.2199	0.766382	1.74517	1.05725	0.215666	-0.0929982	-0.239392	0	-0.269729	0	0	-0.281244	-0.0510193	-0.411838	0.184264	-0.0794084	0	0	-0.554185	0.109554	-0.0280967	-0.165572	-0.503774	0.112194	0.976425	0.979202	0	0	0.18827	-0.544924	0.219231	1.07087	1.40987	0	0
0.33	-0.160256	1.50101	-1.30371	0.76441	1.73284	1.05464	0.214837	-0.101732	-0.256753	0	-0.244852	0	0	-0.289983	-0.0512589	-0.418661	0.191795	-0.0727135	0	0	-0.549643	0.1044	-0.0370981	-0.164769	-0.502334	0.121016	0.972619	0.97029	0	0	0.187841	-0.55353	0.222998	1.08193	1.41144	0	0
0.34	-0.100616	1.50211	-1.35575	0.76271	1.72054	1.05251	0.216162	-0.107032	-0.26932	0	-0.213433	0	0	-0.298061	-0.0549032	-0.424128	0.201114	-0.0667975	0	0	-0.547436	0.102818	-0.0452413	-0.161848	-0.50157	0.129913	0.967133	0.962652	0	0	0.187559	-0.559833	0.225763	1.09182	1.4133	0	0
0.35	-0.0430714	1.50306	-1.4051	0.760676	1.70809	1.05022	0.21568	-0.111899	-0.277477	0	-0.187928	0	0	-0.304384	-0.0604095	-0.428737	0.213789	-0.0595312	0	0	-0.544294	0.101266	-0.0545973	-0.158304	-0.499846	0.139986	0.960799	0.954461	0	0	0.185213	-0.567184	0.227682	1.10112	1.41476	0	0
0.36	0.00596925	1.5043	-1.44587	0.758448	1.69561	1.04799	0.214836	-0.115331	-0.285772	0	-0.166818	0	0	-0.308875	-0.0671383	-0.430786	0.228288	-0.0502456	0	0	-0.540121	0.100088	-0.0648298	-0.152952	-0.497166	0.151279	0.952498	0.94523	0	0	0.180885	-0.5742	0.227815	1.10903	1.41407	0	0
